<?xml version="1.0" encoding="utf-8"?>
<!-- Generator: Adobe Illustrator 17.1.0, SVG Export Plug-In . SVG Version: 6.00 Build 0)  -->
<!DOCTYPE svg PUBLIC "-//W3C//DTD SVG 1.1//EN" "http://www.w3.org/Graphics/SVG/1.1/DTD/svg11.dtd">
<svg version="1.1" id="Layer_1" xmlns="http://www.w3.org/2000/svg" xmlns:xlink="http://www.w3.org/1999/xlink" x="0px" y="0px"
	 viewBox="0 200 800 400" enable-background="new 0 200 800 400" xml:space="preserve">
<text transform="matrix(1 0 0 1 -3161.2747 350.1846)" font-family="'Farmer'sCo-op-Bold'" font-size="103.946" letter-spacing="3">SAINTS</text>
<text transform="matrix(1 0 0 1 -3233.3748 502.1846)" font-family="'Farmer'sCo-op-Bold'" font-size="103.946">ALBERTA</text>
<rect x="-2940.1" y="361.8" fill="none" width="120.1" height="53"/>
<text transform="matrix(1 0 0 1 -2926.8298 407.8691)" font-family="'Farmer'sCo-op-Regular'" font-size="54.2327">of</text>
<line fill="none" stroke="#000000" stroke-width="3" stroke-miterlimit="10" x1="-2939" y1="391.5" x2="-3160" y2="391.5"/>
<line fill="none" stroke="#000000" stroke-width="3" stroke-miterlimit="10" x1="-2820" y1="392.5" x2="-2599" y2="392.5"/>
<text transform="matrix(1 0 0 1 -701.2747 350.1846)" fill="#EB3C29" font-family="'Farmer'sCo-op-Bold'" font-size="103.946" letter-spacing="3">SAINTS</text>
<text transform="matrix(1 0 0 1 -773.3747 504.1846)" fill="#EB3C29" font-family="'Farmer'sCo-op-Bold'" font-size="103.946">ALBERTA</text>
<rect x="-480.1" y="361.8" fill="none" width="120.1" height="53"/>
<text transform="matrix(1 0 0 1 -466.8298 407.8691)" font-family="'Farmer'sCo-op-Regular'" font-size="54.2327">of</text>
<line fill="none" stroke="#5EA0D4" stroke-width="3" stroke-miterlimit="10" x1="-479" y1="391.5" x2="-700" y2="391.5"/>
<line fill="none" stroke="#5EA0D4" stroke-width="3" stroke-miterlimit="10" x1="-360" y1="392.5" x2="-139" y2="392.5"/>
<g>
	<g>
		<path fill="#EB3C29" d="M128.2,337.9c0,0,14,7.7,30.2,7.7c16.8,0,23.8-3.5,23.8-7.1c0-5.6-10.2-5.1-21.1-5.3
			c-21.7-0.4-40.6-2.9-40.6-22.8c0-25.3,38.7-24.8,46.4-24.8c25.3,0,38.8,6.2,38.8,6.2l-7.4,15.8c0,0-15.9-5.3-29.9-5.3
			c-16.9,0-22.9,3.9-22.9,7.1c0,3.5,5.4,6,17.6,6c22.5,0,45.2,0.8,45.2,23.1c0,25.4-42.2,23.9-49.9,23.9c-26.7,0-38.7-9.8-38.7-9.8
			L128.2,337.9z"/>
		<path fill="#EB3C29" d="M281.1,287.6c33.1,0,35.9,20.9,35.9,33.8v39h-23.6v-16.6h-51.1v16.6h-23.6v-39c0-18.3,8.3-33.8,36.9-33.8
			H281.1z M260.5,304.2c-9.9,0-18.2,5.2-18.2,16.1v6.8h51.1v-5.7c0-12-6.6-17.2-17.2-17.2L260.5,304.2L260.5,304.2z"/>
		<path fill="#EB3C29" d="M331.6,360.4v-72.8H357v72.8H331.6z"/>
		<path fill="#EB3C29" d="M457.8,360.4l-63.1-47.1v47.1h-23v-72.8h21l63.1,45.9v-45.9h23v72.8H457.8z"/>
		<path fill="#EB3C29" d="M549,304.2v56.1h-23.4v-56.1h-37v-16.5H586v16.5H549z"/>
		<path fill="#EB3C29" d="M600.1,337.9c0,0,14,7.7,30.2,7.7c16.8,0,23.8-3.5,23.8-7.1c0-5.6-10.2-5.1-21.1-5.3
			c-21.7-0.4-40.6-2.9-40.6-22.8c0-25.3,38.7-24.8,46.4-24.8c25.3,0,38.8,6.2,38.8,6.2l-7.4,15.8c0,0-15.9-5.3-29.9-5.3
			c-16.9,0-22.9,3.9-22.9,7.1c0,3.5,5.4,6,17.6,6c22.5,0,45.2,0.8,45.2,23.1c0,25.4-42.2,23.9-49.9,23.9c-26.7,0-38.7-9.8-38.7-9.8
			L600.1,337.9z"/>
		<path fill="#EB3C29" d="M114.3,441.6c33.1,0,35.9,21,35.9,33.8v39h-23.6v-16.6H75.4v16.6H51.8v-39c0-18.3,8.3-33.8,36.9-33.8
			H114.3z M93.6,458.2c-9.9,0-18.2,5.2-18.2,16.1v6.8h51.1v-5.7c0-12-6.6-17.2-17.2-17.2L93.6,458.2L93.6,458.2z"/>
		<path fill="#EB3C29" d="M235.8,497.8v16.6h-75.3v-72.8h23.9v56.1L235.8,497.8L235.8,497.8z"/>
		<path fill="#EB3C29" d="M312.8,441.5c18.1,0,24.2,11.6,24.2,19.7c0,6.3-1.7,10.1-3.8,13.7c3.5,5,6,10.8,6,15.9
			c0,10.9-6,23.4-25.7,23.4H242v-72.8L312.8,441.5L312.8,441.5z M265.4,468.7h39.1c4.4,0,10.5,0,10.5-5.4c0-4.7-5.3-5.1-6.9-5.1
			h-42.7V468.7z M265.4,497.7h43.4c2.2,0,6.9-0.5,6.9-5.8c0-3.8-3.1-6.5-7.1-6.5h-43.2L265.4,497.7L265.4,497.7z"/>
		<path fill="#EB3C29" d="M369.6,458.3v11.5h57v16.5h-57v11.5H436v16.5h-90.1v-72.8H436v16.6h-66.3V458.3z"/>
		<path fill="#EB3C29" d="M517.3,441.6c19.4,0,26.8,13.7,26.8,24.5c0,8.6-5.9,19.4-18.9,23.7l10.1,24.5h-24.4l-9.4-23.1h-33.9v23.1
			h-23.4v-72.8h73.1V441.6z M467.6,474.1h43.9c5,0,9.4-2.9,9.4-7.9c0-4.4-4.4-6.5-5.8-6.5h-47.4v14.4H467.6z"/>
		<path fill="#EB3C29" d="M607.1,458.2v56.1h-23.4v-56.1h-37v-16.5h97.4v16.5H607.1z"/>
		<path fill="#EB3C29" d="M712.2,441.6c33.1,0,35.9,21,35.9,33.8v39h-23.6v-16.6h-51.1v16.6h-23.6v-39c0-18.3,8.3-33.8,36.9-33.8
			H712.2z M691.6,458.2c-9.9,0-18.2,5.2-18.2,16.1v6.8h51.1v-5.7c0-12-6.6-17.2-17.2-17.2L691.6,458.2L691.6,458.2z"/>
	</g>
	<g>
		<path d="M404.1,402.3c0,10.7-8.1,17.1-24.8,17.1c-15.9,0-24.2-6.7-24.2-17.1c0-9.7,7.5-17.5,24.2-17.5
			C400.4,384.8,404.1,396.1,404.1,402.3z M361.8,402c0,7.6,7,11.5,17.9,11.5c11.5,0,17.5-4.3,17.5-11.5c0-6.2-6-11.2-17.5-11.2
			C370,390.7,361.8,394.2,361.8,402z"/>
		<path d="M414.4,390.3c0-10.2,7.3-16.2,18.3-16.2c5.5,0,10.2,1.7,13.6,4.1l-3.1,4.8c-2.5-1.6-6.4-3-10.4-3
			c-10.3,0-11.6,6.6-11.6,9.9v3h14.7v6.3h-14.7V418h-6.8v-18.8h-7v-6.3h7V390.3z"/>
	</g>
	<rect x="120" y="400.2" fill="#5EA0D4" width="221" height="3"/>
	<rect x="460" y="401.2" fill="#5EA0D4" width="221" height="3"/>
</g>
<text transform="matrix(1 0 0 1 -2311.4426 350.1846)" font-family="'Farmer'sCo-op-Bold'" font-size="103.946" letter-spacing="3">saints</text>
<text transform="matrix(1 0 0 1 -2335.4426 502.1846)" font-family="'Farmer'sCo-op-Bold'" font-size="103.946">alberta</text>
<rect x="-2120.1" y="362.8" fill="none" width="120.1" height="53"/>
<text transform="matrix(1 0 0 1 -2106.8298 408.8691)" font-family="'Farmer'sCo-op-Regular'" font-size="54.2327">of</text>
<line fill="none" stroke="#000000" stroke-width="3" stroke-miterlimit="10" x1="-2119" y1="392.5" x2="-2309" y2="392.5"/>
<line fill="none" stroke="#000000" stroke-width="3" stroke-miterlimit="10" x1="-2000" y1="393.5" x2="-1811" y2="393.5"/>
<text transform="matrix(1 0 0 1 -1491.4426 350.1846)" font-family="'Farmer'sCo-op-Bold'" font-size="103.946" letter-spacing="3">saints</text>
<text transform="matrix(1 0 0 1 -1515.4426 502.1846)" font-family="'Farmer'sCo-op-Bold'" font-size="103.946">alberta</text>
<rect x="-1300.1" y="362.8" fill="none" width="120.1" height="53"/>
<text transform="matrix(1 0 0 1 -1286.8298 408.8691)" font-family="'Farmer'sCo-op-Regular'" font-size="54.2327">of</text>
<line fill="none" stroke="#000000" stroke-width="3" stroke-miterlimit="10" x1="-1299" y1="392.5" x2="-1489" y2="392.5"/>
<line fill="none" stroke="#000000" stroke-width="3" stroke-miterlimit="10" x1="-1180" y1="393.5" x2="-991" y2="393.5"/>
</svg>
