<?xml version="1.0" encoding="utf-8"?>
<!-- Generator: Adobe Illustrator 17.1.0, SVG Export Plug-In . SVG Version: 6.00 Build 0)  -->
<!DOCTYPE svg PUBLIC "-//W3C//DTD SVG 1.1//EN" "http://www.w3.org/Graphics/SVG/1.1/DTD/svg11.dtd">
<svg version="1.1" id="Layer_1" xmlns="http://www.w3.org/2000/svg" xmlns:xlink="http://www.w3.org/1999/xlink" x="0px" y="0px"
	 viewBox="0 0 600 399.7" enable-background="new 0 0 600 399.7" xml:space="preserve">
<g>
	<rect y="0" fill="#1297CC" width="600" height="133.3"/>
	<rect y="133" fill="#427556" width="600" height="133.3"/>
	<rect y="266.3" fill="#664D43" width="600" height="133.3"/>
</g>
<g>
	<rect x="20.4" y="15.1" fill="none" width="558.1" height="101.1"/>
	<text transform="matrix(1 0 0 1 20.4477 99.943)"><tspan x="0" y="0" fill="#FFFFFF" font-family="'OpenSans-Extrabold'" font-size="99">LD</tspan><tspan x="129.3" y="0" fill="#FFFFFF" font-family="'OpenSans-Extrabold'" font-size="99" letter-spacing="3">S</tspan></text>
	<rect x="20.4" y="149.1" fill="none" width="558.1" height="101.1"/>
	<text transform="matrix(1 0 0 1 20.4477 233.977)"><tspan x="0" y="0" fill="#FFFFFF" font-family="'OpenSans-Extrabold'" font-size="99" letter-spacing="5">E</tspan><tspan x="59.8" y="0" fill="#FFFFFF" font-family="'OpenSans-Extrabold'" font-size="99" letter-spacing="3">AR</tspan><tspan x="205.6" y="0" fill="#FFFFFF" font-family="'OpenSans-Extrabold'" font-size="99" letter-spacing="1">T</tspan><tspan x="265.6" y="0" fill="#FFFFFF" font-family="'OpenSans-Extrabold'" font-size="99" letter-spacing="3">H</tspan></text>
	<rect x="21.4" y="283.5" fill="none" width="558.1" height="101.1"/>
	<text transform="matrix(1 0 0 1 21.4404 368.31)"><tspan x="0" y="0" fill="#FFFFFF" font-family="'OpenSans-Extrabold'" font-size="99" letter-spacing="2">S</tspan><tspan x="60" y="0" fill="#FFFFFF" font-family="'OpenSans-Extrabold'" font-size="99" letter-spacing="3">TE</tspan><tspan x="179.8" y="0" fill="#FFFFFF" font-family="'OpenSans-Extrabold'" font-size="99" letter-spacing="-4">W</tspan><tspan x="277.8" y="0" fill="#FFFFFF" font-family="'OpenSans-Extrabold'" font-size="99" letter-spacing="3">AR</tspan><tspan x="423.6" y="0" fill="#FFFFFF" font-family="'OpenSans-Extrabold'" font-size="99" letter-spacing="1">D</tspan><tspan x="497.7" y="0" fill="#FFFFFF" font-family="'OpenSans-Extrabold'" font-size="99" letter-spacing="3">S</tspan></text>
</g>
</svg>
