<?xml version="1.0" encoding="utf-8"?>
<!-- Generator: Adobe Illustrator 17.1.0, SVG Export Plug-In . SVG Version: 6.00 Build 0)  -->
<!DOCTYPE svg PUBLIC "-//W3C//DTD SVG 1.1//EN" "http://www.w3.org/Graphics/SVG/1.1/DTD/svg11.dtd">
<svg version="1.1" id="Layer_1" xmlns="http://www.w3.org/2000/svg" xmlns:xlink="http://www.w3.org/1999/xlink" x="0px" y="0px"
	 viewBox="0 0 600 400.4" enable-background="new 0 0 600 400.4" xml:space="preserve">
<g>
	<rect y="0" fill="#1297CC" width="600" height="133.3"/>
	<rect y="133" fill="#427556" width="600" height="133.3"/>
	<rect y="265.3" fill="#664D43" width="600" height="135.1"/>
</g>
<g>
	<rect x="20.4" y="15.1" fill="none" width="558.1" height="101.1"/>
	<text transform="matrix(1 0 0 1 20.4477 103.1681)"><tspan x="0" y="0" fill="#FFFFFF" font-family="'Futura-Medium'" font-size="100" letter-spacing="3">L</tspan><tspan x="47.8" y="0" fill="#FFFFFF" font-family="'Futura-Medium'" font-size="100">D</tspan><tspan x="119.9" y="0" fill="#FFFFFF" font-family="'Futura-Medium'" font-size="100" letter-spacing="3">S</tspan></text>
	<rect x="20.4" y="149.1" fill="none" width="558.1" height="101.1"/>
	<text transform="matrix(1 0 0 1 20.4477 237.2021)"><tspan x="0" y="0" fill="#FFFFFF" font-family="'Futura-Medium'" font-size="100" letter-spacing="3">EAR</tspan><tspan x="201.3" y="0" fill="#FFFFFF" font-family="'Futura-Medium'" font-size="100" letter-spacing="1">T</tspan><tspan x="251.1" y="0" fill="#FFFFFF" font-family="'Futura-Medium'" font-size="100" letter-spacing="3">H</tspan></text>
	<rect x="21.4" y="283.5" fill="none" width="558.1" height="101.1"/>
	<text transform="matrix(1 0 0 1 21.4404 371.5351)"><tspan x="0" y="0" fill="#FFFFFF" font-family="'Futura-Medium'" font-size="100" letter-spacing="2">S</tspan><tspan x="61.2" y="0" fill="#FFFFFF" font-family="'Futura-Medium'" font-size="100" letter-spacing="3">TE</tspan><tspan x="173" y="0" fill="#FFFFFF" font-family="'Futura-Medium'" font-size="100" letter-spacing="-12">W</tspan><tspan x="266.1" y="0" fill="#FFFFFF" font-family="'Futura-Medium'" font-size="100" letter-spacing="3">A</tspan><tspan x="343.7" y="0" fill="#FFFFFF" font-family="'Futura-Medium'" font-size="100" letter-spacing="1">R</tspan><tspan x="405.4" y="0" fill="#FFFFFF" font-family="'Futura-Medium'" font-size="100" letter-spacing="3">DS</tspan></text>
</g>
</svg>
